<svg id="Layer_1" data-name="Layer 1" xmlns="http://www.w3.org/2000/svg" viewBox="0 0 64 63.79"><defs><style>.cls-1{fill:none;}.cls-1,.cls-2{stroke:#575756;}.cls-1,.cls-2,.cls-3{stroke-miterlimit:10;}.cls-2{fill:#312783;}.cls-3{fill:#fff;stroke:#36a9e1;}</style></defs><line class="cls-1" x1="7.81" y1="28.44" x2="27.93" y2="6.78"/><line class="cls-1" x1="9.29" y1="30.55" x2="27.5" y2="22.9"/><line class="cls-1" x1="9.29" y1="33.24" x2="27.5" y2="40.9"/><line class="cls-1" x1="8.08" y1="35.13" x2="28.25" y2="55.79"/><line class="cls-1" x1="8.52" y1="11.13" x2="27.5" y2="3.87"/><line class="cls-1" x1="9.29" y1="13.04" x2="28.33" y2="20.33"/><line class="cls-1" x1="8.92" y1="16.07" x2="28.49" y2="38.12"/><line class="cls-1" x1="7.45" y1="17.61" x2="29.99" y2="54.94"/><line class="cls-1" x1="6.42" y1="45.78" x2="29.61" y2="8.64"/><line class="cls-1" x1="8.57" y1="47.49" x2="28.1" y2="25.11"/><line class="cls-1" x1="9.29" y1="49.9" x2="27.82" y2="42.52"/><line class="cls-1" x1="8.64" y1="52.19" x2="27.58" y2="58.08"/><line class="cls-2" x1="35.95" y1="3.18" x2="56.36" y2="10.47"/><line class="cls-1" x1="36.29" y1="5.62" x2="56.3" y2="28.36"/><line class="cls-1" x1="34.55" y1="8.39" x2="56.15" y2="46.47"/><line class="cls-1" x1="35.68" y1="20.67" x2="54.75" y2="14.48"/><line class="cls-1" x1="36.29" y1="22.9" x2="54.71" y2="29.79"/><line class="cls-1" x1="35.63" y1="25.2" x2="55.08" y2="47.72"/><line class="cls-1" x1="35.95" y1="39.2" x2="55.71" y2="16.69"/><line class="cls-1" x1="36.29" y1="40.44" x2="54.5" y2="31.9"/><line class="cls-1" x1="36.11" y1="42.35" x2="54.5" y2="49.21"/><line class="cls-1" x1="35.05" y1="55.84" x2="57.25" y2="18.29"/><line class="cls-1" x1="36.06" y1="57.5" x2="55.15" y2="34.19"/><line class="cls-1" x1="36.26" y1="59.38" x2="54.71" y2="51.24"/><circle class="cls-3" cx="31.9" cy="4.9" r="4.4"/><circle class="cls-3" cx="59.1" cy="13.9" r="4.4"/><circle class="cls-3" cx="5.1" cy="13.9" r="4.4"/><circle class="cls-3" cx="5.1" cy="31.9" r="4.4"/><circle class="cls-3" cx="4.9" cy="49.9" r="4.4"/><circle class="cls-3" cx="31.9" cy="22.9" r="4.4"/><circle class="cls-3" cx="31.9" cy="40.9" r="4.4"/><circle class="cls-3" cx="31.9" cy="58.9" r="4.4"/><circle class="cls-3" cx="58.9" cy="31.9" r="4.4"/><circle class="cls-3" cx="58.9" cy="49.9" r="4.4"/></svg>